<mxfile host="app.diagrams.net" agent="Mozilla/5.0 (Windows NT 10.0; Win64; x64) AppleWebKit/537.36 (KHTML, like Gecko) Chrome/136.0.0.0 Safari/537.36" version="26.2.14">
  <diagram name="Page-1" id="0nF_kIsVZiJPyhtbK4A9">
    <mxGraphModel dx="947" dy="515" grid="0" gridSize="10" guides="1" tooltips="1" connect="1" arrows="1" fold="1" page="1" pageScale="1" pageWidth="850" pageHeight="1100" math="0" shadow="0">
      <root>
        <mxCell id="0" />
        <mxCell id="1" parent="0" />
        <mxCell id="284iJ_O5Ic-7j3CqngOl-1" value="" style="rounded=0;whiteSpace=wrap;html=1;fillColor=none;rotation=0;" vertex="1" parent="1">
          <mxGeometry x="1132.57" y="417" width="214" height="299" as="geometry" />
        </mxCell>
        <mxCell id="284iJ_O5Ic-7j3CqngOl-2" value="Machine 2" style="text;html=1;strokeColor=none;fillColor=none;align=center;verticalAlign=middle;whiteSpace=wrap;rounded=0;rotation=0;" vertex="1" parent="1">
          <mxGeometry x="1132.5700000000002" y="417" width="65.43" height="18" as="geometry" />
        </mxCell>
        <mxCell id="284iJ_O5Ic-7j3CqngOl-3" value="play sound" style="rounded=1;whiteSpace=wrap;html=1;rotation=0;" vertex="1" parent="1">
          <mxGeometry x="1187.9466821720612" y="437.38245234503387" width="83" height="37" as="geometry" />
        </mxCell>
        <mxCell id="284iJ_O5Ic-7j3CqngOl-4" value="" style="pointerEvents=1;verticalLabelPosition=bottom;shadow=0;dashed=0;align=center;html=1;verticalAlign=top;shape=mxgraph.electrical.electro-mechanical.loudspeaker;rotation=-90;" vertex="1" parent="1">
          <mxGeometry x="1203.55" y="338" width="51.78" height="105" as="geometry" />
        </mxCell>
        <mxCell id="284iJ_O5Ic-7j3CqngOl-5" style="edgeStyle=orthogonalEdgeStyle;rounded=0;orthogonalLoop=1;jettySize=auto;html=1;exitX=0.5;exitY=0;exitDx=0;exitDy=0;entryX=0.5;entryY=1;entryDx=0;entryDy=0;strokeWidth=2;" edge="1" parent="1" source="284iJ_O5Ic-7j3CqngOl-6" target="284iJ_O5Ic-7j3CqngOl-3">
          <mxGeometry relative="1" as="geometry">
            <mxPoint x="1229.441682172061" y="549.0024523450339" as="targetPoint" />
          </mxGeometry>
        </mxCell>
        <mxCell id="284iJ_O5Ic-7j3CqngOl-6" value="Server" style="rounded=1;whiteSpace=wrap;html=1;rotation=0;" vertex="1" parent="1">
          <mxGeometry x="1164.566682172061" y="578.0024523450339" width="131" height="47" as="geometry" />
        </mxCell>
        <mxCell id="284iJ_O5Ic-7j3CqngOl-9" value="&lt;font style=&quot;font-size: 8px;&quot;&gt;&quot;tick&quot;&lt;/font&gt;" style="rounded=0;whiteSpace=wrap;html=1;rotation=0;" vertex="1" parent="1">
          <mxGeometry x="1238" y="522" width="47.05" height="19" as="geometry" />
        </mxCell>
        <mxCell id="284iJ_O5Ic-7j3CqngOl-10" value="" style="rounded=0;whiteSpace=wrap;html=1;fillColor=none;rotation=0;" vertex="1" parent="1">
          <mxGeometry x="836" y="416.5" width="197" height="301.5" as="geometry" />
        </mxCell>
        <mxCell id="284iJ_O5Ic-7j3CqngOl-11" value="Machine 1" style="text;html=1;strokeColor=none;fillColor=none;align=center;verticalAlign=middle;whiteSpace=wrap;rounded=0;rotation=0;" vertex="1" parent="1">
          <mxGeometry x="836" y="417" width="65.43" height="18" as="geometry" />
        </mxCell>
        <mxCell id="284iJ_O5Ic-7j3CqngOl-12" value="play sound" style="rounded=1;whiteSpace=wrap;html=1;rotation=0;" vertex="1" parent="1">
          <mxGeometry x="887.3766821720612" y="436.88245234503387" width="83" height="37" as="geometry" />
        </mxCell>
        <mxCell id="284iJ_O5Ic-7j3CqngOl-13" value="" style="pointerEvents=1;verticalLabelPosition=bottom;shadow=0;dashed=0;align=center;html=1;verticalAlign=top;shape=mxgraph.electrical.electro-mechanical.loudspeaker;rotation=-90;" vertex="1" parent="1">
          <mxGeometry x="902.98" y="337.5" width="51.78" height="105" as="geometry" />
        </mxCell>
        <mxCell id="284iJ_O5Ic-7j3CqngOl-14" style="edgeStyle=orthogonalEdgeStyle;rounded=0;orthogonalLoop=1;jettySize=auto;html=1;exitX=0.5;exitY=0;exitDx=0;exitDy=0;entryX=0.5;entryY=1;entryDx=0;entryDy=0;strokeWidth=2;" edge="1" parent="1" source="284iJ_O5Ic-7j3CqngOl-15" target="284iJ_O5Ic-7j3CqngOl-12">
          <mxGeometry relative="1" as="geometry">
            <mxPoint x="928.8716821720609" y="548.5024523450339" as="targetPoint" />
          </mxGeometry>
        </mxCell>
        <mxCell id="284iJ_O5Ic-7j3CqngOl-15" value="Server" style="rounded=1;whiteSpace=wrap;html=1;rotation=0;" vertex="1" parent="1">
          <mxGeometry x="863.9966821720611" y="578.0024523450339" width="131" height="47" as="geometry" />
        </mxCell>
        <mxCell id="284iJ_O5Ic-7j3CqngOl-18" value="&lt;font style=&quot;font-size: 8px;&quot;&gt;&quot;tick&quot;&lt;/font&gt;" style="rounded=0;whiteSpace=wrap;html=1;rotation=0;" vertex="1" parent="1">
          <mxGeometry x="936.0000000000001" y="522" width="47.05" height="19" as="geometry" />
        </mxCell>
        <mxCell id="284iJ_O5Ic-7j3CqngOl-23" style="edgeStyle=orthogonalEdgeStyle;rounded=0;orthogonalLoop=1;jettySize=auto;html=1;entryX=0;entryY=0.5;entryDx=0;entryDy=0;curved=1;fillColor=#d5e8d4;strokeColor=#82b366;strokeWidth=2;" edge="1" parent="1" source="284iJ_O5Ic-7j3CqngOl-24" target="284iJ_O5Ic-7j3CqngOl-6">
          <mxGeometry relative="1" as="geometry" />
        </mxCell>
        <mxCell id="284iJ_O5Ic-7j3CqngOl-24" value="Client&lt;br style=&quot;border-color: var(--border-color);&quot;&gt;" style="rounded=1;whiteSpace=wrap;html=1;" vertex="1" parent="1">
          <mxGeometry x="866" y="656" width="131" height="47" as="geometry" />
        </mxCell>
        <mxCell id="284iJ_O5Ic-7j3CqngOl-25" style="edgeStyle=orthogonalEdgeStyle;rounded=0;orthogonalLoop=1;jettySize=auto;html=1;entryX=1;entryY=0.5;entryDx=0;entryDy=0;curved=1;fillColor=#f8cecc;strokeColor=#b85450;strokeWidth=2;" edge="1" parent="1" source="284iJ_O5Ic-7j3CqngOl-26" target="284iJ_O5Ic-7j3CqngOl-15">
          <mxGeometry relative="1" as="geometry" />
        </mxCell>
        <mxCell id="284iJ_O5Ic-7j3CqngOl-26" value="Client&lt;br style=&quot;border-color: var(--border-color);&quot;&gt;" style="rounded=1;whiteSpace=wrap;html=1;" vertex="1" parent="1">
          <mxGeometry x="1172.07" y="656" width="131" height="47" as="geometry" />
        </mxCell>
        <mxCell id="284iJ_O5Ic-7j3CqngOl-27" value="" style="group;rotation=30;" vertex="1" connectable="0" parent="1">
          <mxGeometry x="1021.001409277359" y="613.0021427294184" width="112.29903309786039" height="54.918076450958154" as="geometry" />
        </mxCell>
        <mxCell id="284iJ_O5Ic-7j3CqngOl-28" value="&lt;font style=&quot;font-size: 8px;&quot;&gt;&quot;/py tick&quot;&lt;/font&gt;" style="rounded=0;whiteSpace=wrap;html=1;rotation=15;" vertex="1" parent="284iJ_O5Ic-7j3CqngOl-27">
          <mxGeometry x="11" y="20" width="85" height="16.48" as="geometry" />
        </mxCell>
        <mxCell id="284iJ_O5Ic-7j3CqngOl-29" value="&lt;font style=&quot;font-size: 8px;&quot;&gt;&quot;/py tick&quot;&lt;/font&gt;" style="rounded=0;whiteSpace=wrap;html=1;rotation=15;" vertex="1" parent="284iJ_O5Ic-7j3CqngOl-27">
          <mxGeometry x="20" y="19" width="86" height="16.48" as="geometry" />
        </mxCell>
        <mxCell id="284iJ_O5Ic-7j3CqngOl-30" value="&lt;font style=&quot;font-size: 8px;&quot;&gt;&quot;/tick tick&quot;&lt;/font&gt;" style="rounded=0;whiteSpace=wrap;html=1;rotation=15;" vertex="1" parent="284iJ_O5Ic-7j3CqngOl-27">
          <mxGeometry x="27" y="18" width="87" height="16.48" as="geometry" />
        </mxCell>
        <mxCell id="284iJ_O5Ic-7j3CqngOl-37" value="" style="group" vertex="1" connectable="0" parent="1">
          <mxGeometry x="1214.1999999999998" y="303.75000000000006" width="46.75" height="59.14999999999998" as="geometry" />
        </mxCell>
        <mxCell id="284iJ_O5Ic-7j3CqngOl-35" value="" style="pointerEvents=1;verticalLabelPosition=bottom;shadow=0;dashed=0;align=center;html=1;verticalAlign=top;shape=mxgraph.electrical.waveforms.sine_wave;strokeWidth=3;rotation=-90;fillColor=#d5e8d4;strokeColor=#82b366;" vertex="1" parent="284iJ_O5Ic-7j3CqngOl-37">
          <mxGeometry x="-3.25" y="15.399999999999977" width="47" height="40.5" as="geometry" />
        </mxCell>
        <mxCell id="284iJ_O5Ic-7j3CqngOl-36" value="" style="pointerEvents=1;verticalLabelPosition=bottom;shadow=0;dashed=0;align=center;html=1;verticalAlign=top;shape=mxgraph.electrical.waveforms.sine_wave;strokeWidth=3;rotation=-90;fillColor=#d5e8d4;strokeColor=#82b366;" vertex="1" parent="284iJ_O5Ic-7j3CqngOl-37">
          <mxGeometry x="3" y="3.25" width="47" height="40.5" as="geometry" />
        </mxCell>
        <mxCell id="284iJ_O5Ic-7j3CqngOl-38" value="" style="group" vertex="1" connectable="0" parent="1">
          <mxGeometry x="908.13" y="300.77000000000004" width="46.75" height="59.14999999999998" as="geometry" />
        </mxCell>
        <mxCell id="284iJ_O5Ic-7j3CqngOl-31" value="" style="pointerEvents=1;verticalLabelPosition=bottom;shadow=0;dashed=0;align=center;html=1;verticalAlign=top;shape=mxgraph.electrical.waveforms.sine_wave;strokeWidth=3;rotation=-90;fillColor=#f8cecc;strokeColor=#b85450;" vertex="1" parent="284iJ_O5Ic-7j3CqngOl-38">
          <mxGeometry x="-3.25" y="15.399999999999977" width="47" height="40.5" as="geometry" />
        </mxCell>
        <mxCell id="284iJ_O5Ic-7j3CqngOl-32" value="" style="pointerEvents=1;verticalLabelPosition=bottom;shadow=0;dashed=0;align=center;html=1;verticalAlign=top;shape=mxgraph.electrical.waveforms.sine_wave;strokeWidth=3;rotation=-90;fillColor=#f8cecc;strokeColor=#b85450;" vertex="1" parent="284iJ_O5Ic-7j3CqngOl-38">
          <mxGeometry x="3" y="3.25" width="47" height="40.5" as="geometry" />
        </mxCell>
      </root>
    </mxGraphModel>
  </diagram>
</mxfile>
